<?xml version="1.0" standalone="no"?>
<!DOCTYPE svg PUBLIC "-//W3C//DTD SVG 20010904//EN"
 "http://www.w3.org/TR/2001/REC-SVG-20010904/DTD/svg10.dtd">
<svg version="1.0" xmlns="http://www.w3.org/2000/svg"
 width="900.000000pt" height="900.000000pt" viewBox="0 0 900.000000 900.000000"
 preserveAspectRatio="xMidYMid meet">
<metadata>
Created by potrace 1.10, written by Peter Selinger 2001-2011
</metadata>
<g transform="translate(0.000000,900.000000) scale(0.100000,-0.100000)"
fill="#000000" stroke="none">
<path d="M6625 8943 c-38 -8 -86 -19 -105 -25 -19 -6 -53 -15 -75 -19 -22 -4
-65 -17 -95 -29 -30 -12 -64 -24 -75 -27 -34 -9 -207 -95 -252 -125 -23 -15
-45 -28 -49 -28 -19 0 -220 -164 -305 -249 -81 -81 -249 -287 -249 -306 0 -3
-12 -24 -27 -48 -40 -62 -103 -193 -138 -287 -9 -25 -23 -60 -31 -78 -8 -18
-14 -45 -14 -60 0 -14 -6 -44 -14 -67 -31 -91 -40 -181 -40 -415 0 -225 9
-327 36 -405 5 -16 14 -50 18 -75 5 -25 18 -70 30 -100 12 -30 25 -67 30 -81
4 -14 12 -34 18 -45 5 -10 19 -39 31 -64 12 -25 37 -72 56 -105 19 -33 38 -66
41 -74 10 -20 75 -115 83 -121 3 -3 32 -36 63 -75 31 -38 77 -90 102 -115 25
-24 46 -50 46 -56 0 -12 -71 -54 -92 -54 -7 0 -53 -20 -102 -44 -50 -24 -98
-47 -106 -50 -8 -3 -31 -16 -50 -27 -19 -12 -58 -33 -85 -48 -63 -32 -158 -93
-237 -149 -63 -46 -91 -50 -96 -15 -2 12 -10 27 -18 33 -8 7 -14 21 -14 31 0
36 -201 345 -255 394 -6 6 -26 29 -44 52 -31 41 -250 234 -274 242 -7 2 -28
16 -47 31 -94 73 -312 177 -467 224 -29 9 -74 23 -100 31 -27 8 -66 15 -88 15
-22 0 -62 7 -89 15 -37 11 -101 15 -251 15 -150 0 -214 -4 -251 -15 -27 -8
-68 -15 -92 -15 -24 0 -53 -5 -65 -12 -12 -6 -40 -15 -62 -19 -45 -8 -97 -25
-137 -45 -14 -8 -34 -14 -43 -14 -15 0 -44 -13 -95 -41 -8 -5 -31 -16 -50 -25
-19 -9 -44 -20 -55 -25 -11 -5 -33 -18 -50 -29 -16 -11 -37 -23 -45 -27 -20
-9 -210 -151 -231 -172 -9 -9 -34 -32 -55 -52 -110 -102 -208 -220 -288 -351
-45 -71 -136 -250 -136 -266 0 -6 -6 -23 -14 -39 -17 -35 -35 -87 -46 -133
-19 -78 -32 -127 -41 -155 -28 -84 -33 -555 -7 -660 5 -22 13 -58 17 -80 16
-79 54 -201 77 -248 8 -16 14 -34 14 -40 0 -22 116 -240 165 -312 76 -110 111
-154 191 -237 41 -43 74 -82 74 -87 0 -9 -38 -29 -127 -67 -80 -34 -103 -45
-190 -88 -117 -57 -203 -105 -224 -122 -8 -8 -19 -14 -23 -14 -11 0 -236 -149
-266 -175 -14 -13 -43 -35 -65 -50 -22 -14 -58 -43 -80 -63 -22 -21 -56 -49
-75 -63 -56 -42 -248 -236 -341 -345 -107 -124 -241 -304 -269 -359 -3 -5 -23
-37 -45 -70 -52 -79 -131 -230 -195 -370 -17 -38 -38 -83 -46 -98 -8 -16 -14
-35 -14 -44 0 -8 -6 -27 -14 -41 -21 -42 -42 -105 -67 -202 -6 -25 -15 -61
-21 -80 -11 -42 -5 -346 9 -410 11 -50 29 -109 49 -155 29 -70 80 -167 91
-177 7 -6 13 -16 13 -22 0 -17 150 -186 196 -220 21 -17 41 -33 44 -36 9 -11
98 -70 122 -80 13 -5 30 -14 38 -18 53 -31 113 -55 185 -75 29 -8 524 -12
1763 -14 l1722 -3 38 24 c44 27 122 104 122 119 0 6 6 18 13 26 17 20 40 113
40 160 -1 56 -31 146 -67 198 -18 26 -56 63 -86 84 -106 73 -3 69 -1768 69
-1014 0 -1583 3 -1587 10 -3 5 -24 14 -47 20 -47 13 -132 95 -169 162 -21 38
-23 56 -23 163 0 90 4 128 16 150 28 54 48 105 48 124 0 10 7 24 15 31 8 7 15
18 15 24 0 10 53 118 119 245 30 58 170 262 238 348 96 121 275 300 393 394
94 75 255 189 266 189 3 0 20 11 37 24 18 14 43 30 57 35 14 6 39 20 55 30 30
20 155 81 210 105 17 7 46 19 65 28 64 28 195 76 220 81 14 3 39 9 55 15 90
30 135 42 159 42 15 0 36 5 47 10 10 6 58 16 107 21 48 6 95 16 106 21 27 15
682 13 720 -2 17 -6 64 -15 105 -20 41 -6 88 -14 105 -19 17 -5 58 -17 91 -26
33 -9 85 -23 115 -32 30 -8 69 -21 85 -28 17 -7 39 -16 50 -18 42 -11 96 -34
107 -45 7 -7 21 -12 32 -13 12 0 65 -24 118 -52 53 -29 120 -65 150 -81 29
-15 67 -39 85 -52 17 -13 35 -24 39 -24 4 0 15 -6 23 -14 9 -7 43 -28 75 -46
57 -31 65 -33 166 -33 97 0 110 3 156 28 141 78 208 210 184 363 -14 88 -39
137 -97 193 -50 47 -180 136 -271 185 -85 46 -93 51 -105 63 -6 6 -17 11 -24
11 -6 0 -35 13 -63 30 -28 16 -57 30 -64 30 -8 0 -19 7 -26 15 -7 8 -20 15
-30 15 -21 0 -136 56 -145 70 -4 6 31 50 77 98 46 48 94 101 108 117 39 47
143 205 168 255 13 25 27 52 31 60 4 8 16 33 26 55 9 22 24 52 31 67 8 14 14
35 14 45 0 11 7 28 15 39 8 10 15 29 15 41 0 12 6 37 14 55 16 39 34 117 46
209 16 124 23 138 111 219 45 41 89 80 99 85 9 6 37 27 62 48 25 20 48 37 52
37 4 0 33 19 64 43 62 46 86 62 117 77 11 6 34 19 50 30 31 19 130 69 245 122
36 17 78 36 93 44 16 8 37 14 47 14 19 0 69 19 122 46 14 8 39 14 55 14 15 1
39 7 53 15 14 8 39 14 55 15 17 0 50 6 75 14 110 35 350 59 590 59 159 0 369
-15 389 -27 5 -4 40 -11 78 -16 106 -15 230 -48 413 -111 129 -44 431 -192
481 -235 8 -8 18 -14 21 -14 3 0 30 -16 59 -36 102 -69 152 -86 249 -85 73 0
96 4 143 27 87 40 162 123 181 197 3 15 13 27 21 27 12 0 15 17 15 88 0 74 -3
89 -19 99 -10 6 -21 24 -24 40 -3 16 -24 50 -47 76 -39 44 -151 137 -165 137
-3 0 -21 11 -38 24 -18 13 -54 36 -82 51 -27 14 -72 40 -100 56 -49 29 -76 42
-220 108 -138 63 -155 73 -155 81 0 5 26 35 58 67 75 74 166 188 227 282 53
82 150 269 164 316 5 17 21 62 35 100 14 39 26 81 26 95 0 14 7 36 15 50 8 14
14 46 15 71 0 25 7 68 15 95 21 70 21 421 0 490 -8 27 -15 69 -15 94 -1 25 -7
56 -15 70 -8 14 -14 37 -15 51 0 14 -12 57 -26 95 -14 38 -28 78 -31 89 -20
77 -187 372 -252 444 -11 13 -21 27 -21 32 0 18 -235 242 -327 312 -56 42
-105 77 -108 77 -4 0 -40 20 -81 45 -40 25 -80 45 -88 45 -7 0 -19 7 -26 15
-7 8 -18 15 -25 15 -8 0 -26 6 -42 14 -77 37 -156 66 -208 75 -22 4 -56 12
-75 19 -19 6 -71 18 -115 26 -106 21 -507 20 -610 -1z m500 -688 c22 -8 49
-15 61 -15 12 0 52 -12 90 -26 38 -14 79 -28 91 -31 12 -3 28 -11 34 -19 6 -8
19 -14 28 -14 9 0 22 -5 28 -11 6 -6 20 -16 31 -23 122 -69 252 -188 334 -306
132 -188 202 -409 202 -630 0 -353 -177 -690 -471 -897 -33 -23 -71 -47 -84
-53 -13 -6 -44 -22 -68 -35 -24 -14 -50 -25 -57 -25 -7 0 -25 -6 -41 -14 -74
-37 -242 -66 -375 -66 -202 0 -426 67 -587 175 -24 17 -55 38 -69 47 -63 42
-231 225 -255 278 -4 8 -16 29 -26 45 -29 45 -61 110 -61 124 0 6 -6 22 -13
34 -15 23 -35 96 -61 213 -20 92 -20 256 0 348 25 115 47 190 61 211 7 11 13
29 13 42 0 12 4 24 9 28 6 3 21 29 36 58 90 183 266 357 460 455 83 42 189 82
244 92 25 5 60 13 76 18 48 16 323 14 370 -3z m-3725 -2396 c36 -5 90 -13 120
-18 30 -4 65 -12 77 -19 12 -7 30 -12 40 -12 17 0 185 -80 238 -113 120 -74
279 -237 353 -360 28 -48 52 -91 52 -96 0 -5 6 -22 14 -38 50 -103 64 -157 81
-309 10 -97 10 -145 1 -245 -7 -68 -18 -134 -24 -146 -7 -12 -12 -32 -12 -45
0 -13 -7 -33 -15 -44 -8 -10 -15 -29 -15 -40 0 -12 -7 -27 -15 -34 -8 -7 -15
-18 -15 -24 0 -30 -92 -175 -166 -260 -25 -30 -75 -78 -111 -107 -36 -30 -71
-59 -77 -64 -66 -59 -328 -175 -396 -175 -14 0 -47 -7 -74 -15 -100 -31 -265
-19 -456 31 -261 69 -504 257 -647 499 -28 48 -76 152 -84 180 -4 17 -12 44
-17 60 -29 85 -35 134 -39 288 -3 132 -1 179 11 221 9 30 16 67 16 83 0 16 7
38 15 49 8 10 15 27 15 36 0 10 13 44 29 75 16 32 32 65 35 73 9 23 86 138
111 166 82 94 195 194 270 241 46 29 225 113 240 113 9 0 28 6 43 14 15 7 52
16 82 20 30 4 78 11 105 15 72 12 141 12 215 0z"/>
<path d="M7235 3297 c-51 -10 -133 -58 -172 -99 -12 -13 -34 -48 -50 -78 l-28
-55 -5 -530 -5 -530 -510 -6 c-556 -6 -560 -7 -652 -66 -65 -42 -86 -67 -123
-141 -30 -60 -31 -69 -27 -155 2 -51 10 -109 19 -130 22 -55 78 -118 145 -163
l58 -39 535 -5 c294 -3 541 -9 548 -13 9 -6 12 -124 12 -531 0 -496 1 -526 19
-567 26 -58 80 -120 138 -158 46 -31 48 -31 178 -31 104 0 139 4 166 17 44 22
116 90 137 128 48 88 46 72 52 625 l5 525 540 5 540 5 40 25 c86 53 165 145
165 191 0 12 8 23 20 26 18 5 20 14 20 94 0 71 -3 89 -15 89 -8 0 -18 16 -24
35 -14 53 -75 129 -134 167 -98 64 -136 68 -676 68 l-481 0 0 518 c-1 439 -3
520 -15 536 -8 11 -15 28 -15 38 0 31 -78 125 -133 161 -35 23 -73 38 -118 46
-75 13 -85 12 -154 -2z"/>
</g>
</svg>
