<?xml version="1.0" standalone="no"?>
<!DOCTYPE svg PUBLIC "-//W3C//DTD SVG 20010904//EN"
 "http://www.w3.org/TR/2001/REC-SVG-20010904/DTD/svg10.dtd">
<svg version="1.0" xmlns="http://www.w3.org/2000/svg"
 width="900.000000pt" height="900.000000pt" viewBox="0 0 900.000000 900.000000"
 preserveAspectRatio="xMidYMid meet">
<metadata>
Created by potrace 1.10, written by Peter Selinger 2001-2011
</metadata>
<g transform="translate(0.000000,900.000000) scale(0.100000,-0.100000)"
fill="#000000" stroke="none">
<path d="M4235 8991 c9 -16 -30 -31 -77 -31 -44 0 -222 -35 -242 -48 -6 -3
-31 -9 -56 -13 -25 -4 -61 -12 -80 -19 -19 -7 -51 -18 -70 -25 -246 -88 -464
-205 -674 -363 -86 -65 -406 -374 -406 -393 0 -4 -19 -31 -43 -61 -42 -53
-128 -179 -141 -208 -3 -8 -15 -28 -26 -45 -25 -39 -90 -169 -90 -180 0 -5 -6
-16 -13 -24 -11 -14 -49 -106 -86 -211 -16 -46 -42 -137 -50 -180 -4 -19 -13
-45 -19 -57 -7 -12 -12 -37 -12 -57 0 -19 -8 -63 -17 -98 -14 -53 -17 -113
-17 -388 0 -285 2 -330 17 -364 9 -21 17 -57 17 -80 1 -47 24 -139 71 -278 6
-18 14 -49 19 -68 4 -19 19 -57 34 -84 14 -27 26 -53 26 -58 0 -12 95 -205
120 -243 11 -16 24 -40 30 -53 10 -23 90 -143 101 -152 4 -3 30 -36 59 -75 84
-110 217 -251 315 -333 120 -101 134 -121 92 -134 -12 -3 -47 -16 -77 -28 -30
-12 -66 -24 -80 -27 -14 -3 -34 -12 -45 -19 -11 -8 -25 -14 -32 -14 -7 0 -43
-14 -80 -31 -38 -16 -81 -36 -98 -44 -39 -17 -175 -83 -200 -97 -11 -6 -27
-15 -35 -20 -8 -4 -22 -11 -30 -14 -31 -12 -36 -15 -65 -34 -16 -11 -37 -23
-45 -27 -14 -7 -154 -90 -194 -116 -82 -52 -212 -140 -216 -147 -3 -4 -23 -18
-45 -32 -50 -32 -220 -172 -362 -299 -229 -204 -579 -609 -698 -807 -5 -9 -22
-33 -38 -53 -15 -20 -27 -40 -27 -44 0 -4 -14 -24 -30 -45 -17 -21 -30 -40
-30 -44 0 -3 -20 -39 -45 -79 -25 -41 -45 -79 -45 -85 0 -5 -7 -15 -15 -22 -8
-7 -15 -20 -15 -30 0 -10 -6 -22 -13 -28 -11 -9 -61 -105 -92 -177 -8 -16 -28
-61 -45 -100 -62 -138 -85 -192 -103 -240 -28 -77 -39 -110 -47 -140 -5 -16
-18 -55 -30 -85 -12 -30 -26 -71 -30 -90 -13 -51 -30 -118 -45 -175 -7 -27
-18 -70 -25 -95 -27 -102 -33 -163 -33 -325 0 -168 7 -232 33 -310 72 -218
197 -397 366 -526 54 -41 120 -86 146 -98 27 -13 50 -27 54 -32 3 -5 14 -9 26
-9 11 0 32 -6 46 -14 37 -19 97 -38 157 -50 70 -13 4635 -20 4649 -6 5 5 19
10 29 10 22 0 106 54 125 81 7 10 18 24 25 31 7 7 23 31 36 53 22 36 24 52 25
155 0 116 0 116 -36 175 -42 70 -65 92 -133 131 l-50 29 -2225 6 c-2357 6
-2311 5 -2390 50 -39 22 -109 90 -142 138 -56 79 -66 265 -22 369 8 18 14 43
14 57 0 13 5 36 11 52 7 15 15 46 19 68 8 40 22 83 45 140 16 41 36 96 42 120
3 11 11 34 19 52 8 17 14 36 14 41 0 6 6 23 14 39 8 15 28 57 44 93 56 123
112 235 142 285 16 28 32 55 34 60 2 6 7 17 10 25 3 8 15 29 26 45 11 17 23
37 27 45 4 8 26 42 48 75 23 33 66 95 94 137 29 42 69 96 90 120 20 24 58 71
84 105 46 60 169 195 272 298 44 44 109 103 245 221 66 58 334 253 375 274 6
3 37 23 70 45 68 45 71 46 255 142 74 39 160 80 190 93 30 12 82 35 115 50
118 53 136 60 158 60 13 0 32 7 43 15 10 8 27 15 36 15 10 0 32 6 50 14 56 23
101 38 143 46 22 5 60 14 85 20 211 55 284 70 333 70 25 0 66 6 89 14 24 8
108 17 188 20 80 4 165 11 190 16 58 12 226 12 315 0 39 -5 131 -12 205 -16
74 -3 157 -12 184 -20 27 -8 68 -14 92 -14 23 0 61 -7 84 -15 23 -8 54 -15 68
-15 24 0 86 -15 183 -46 26 -8 59 -14 74 -14 15 0 39 -6 53 -14 15 -7 56 -23
92 -34 102 -32 133 -44 162 -58 14 -8 33 -14 41 -14 9 0 59 -20 111 -45 53
-25 103 -45 110 -45 8 0 17 -4 21 -9 9 -16 110 -41 165 -41 29 0 71 5 94 12
93 27 198 121 232 210 25 64 29 172 9 222 -55 135 -101 180 -255 249 -19 9
-65 30 -103 46 -37 17 -73 31 -80 31 -6 0 -21 7 -31 15 -11 8 -28 15 -39 15
-10 0 -31 6 -45 14 -31 15 -87 36 -119 43 -45 10 -28 35 98 139 93 77 268 266
328 354 13 19 29 40 35 45 17 15 95 131 106 157 6 13 19 37 30 53 25 38 120
231 120 243 0 5 12 31 26 58 15 27 30 65 34 84 5 19 13 49 18 65 28 83 35 105
52 170 11 39 20 89 20 111 0 23 8 59 17 80 25 59 25 659 0 752 -9 35 -17 79
-17 98 0 20 -5 45 -12 57 -6 12 -15 38 -19 57 -8 43 -34 134 -50 180 -37 105
-75 197 -86 211 -7 8 -13 19 -13 24 0 11 -65 141 -90 180 -11 17 -23 37 -26
45 -13 29 -99 155 -141 208 -24 30 -43 57 -43 61 0 4 -69 78 -154 163 -178
180 -290 269 -504 400 -31 18 -222 114 -267 133 -39 17 -98 39 -225 85 -19 7
-55 15 -80 19 -25 4 -50 10 -56 13 -20 13 -198 48 -242 48 -47 0 -86 15 -77
31 4 5 -93 9 -255 9 -162 0 -259 -4 -255 -9z m415 -716 c149 -13 177 -18 300
-52 122 -34 300 -109 385 -164 17 -10 39 -23 50 -29 25 -12 105 -70 165 -118
118 -94 310 -310 366 -412 10 -19 22 -37 25 -40 11 -9 79 -143 79 -155 0 -7 7
-18 15 -25 8 -7 15 -22 15 -34 0 -11 7 -30 15 -40 8 -11 15 -29 15 -41 0 -12
5 -26 12 -33 6 -6 14 -30 18 -54 5 -24 13 -56 18 -73 40 -115 56 -519 27 -685
-9 -52 -21 -108 -27 -125 -5 -16 -14 -48 -18 -70 -9 -46 -31 -105 -66 -184
-100 -224 -202 -371 -374 -541 -99 -98 -208 -190 -225 -190 -4 0 -24 -12 -44
-27 -20 -16 -45 -33 -56 -40 -44 -26 -226 -113 -237 -113 -7 0 -22 -7 -32 -15
-11 -8 -30 -15 -43 -15 -12 0 -37 -6 -55 -14 -41 -17 -117 -36 -188 -47 -30
-5 -77 -13 -105 -18 -65 -13 -325 -13 -390 0 -27 5 -75 13 -105 18 -71 11
-147 30 -188 47 -18 8 -43 14 -55 14 -13 0 -32 7 -43 15 -10 8 -25 15 -32 15
-11 0 -193 87 -237 113 -11 7 -36 24 -56 40 -20 15 -40 27 -44 27 -17 0 -137
101 -231 195 -167 166 -269 315 -368 536 -35 79 -57 138 -66 184 -4 22 -13 54
-18 70 -6 17 -18 73 -27 125 -29 166 -13 570 27 685 5 17 13 49 18 73 4 24 12
48 18 54 7 7 12 21 12 33 0 12 7 30 15 41 8 10 15 29 15 40 0 12 7 27 15 34 8
7 15 18 15 25 0 31 96 193 184 310 113 150 340 359 451 415 11 6 34 19 50 29
86 55 262 130 385 164 125 35 151 40 285 52 182 16 158 16 335 0z"/>
<path d="M7210 3309 c-8 -5 -26 -14 -40 -19 -62 -26 -130 -82 -130 -107 0 -7
-4 -13 -8 -13 -5 0 -18 -24 -30 -53 -22 -52 -22 -61 -22 -569 0 -456 -2 -518
-16 -532 -14 -14 -76 -16 -532 -16 -508 0 -517 0 -569 -22 -29 -12 -53 -25
-53 -30 0 -4 -6 -8 -13 -8 -15 0 -63 -48 -83 -82 -46 -83 -54 -111 -54 -199 0
-80 3 -96 32 -156 25 -50 47 -77 88 -110 30 -24 66 -46 80 -50 14 -3 31 -11
39 -17 10 -8 177 -13 545 -16 l531 -5 5 -535 5 -535 30 -59 c35 -70 113 -136
186 -160 61 -20 181 -20 238 0 91 31 169 108 208 205 16 40 18 97 23 564 l5
520 520 5 c467 5 524 7 564 23 95 38 181 124 202 202 6 20 16 35 24 35 12 0
15 18 15 90 0 72 -3 90 -15 90 -8 0 -19 16 -24 38 -17 61 -89 143 -157 177
l-59 30 -535 5 -535 5 -5 531 c-3 368 -8 535 -16 545 -6 8 -14 25 -17 39 -4
14 -26 50 -50 80 -33 41 -60 63 -110 88 -61 29 -74 32 -159 31 -51 0 -100 -4
-108 -10z"/>
</g>
</svg>
