<?xml version="1.0" standalone="no"?>
<!DOCTYPE svg PUBLIC "-//W3C//DTD SVG 20010904//EN"
 "http://www.w3.org/TR/2001/REC-SVG-20010904/DTD/svg10.dtd">
<svg version="1.0" xmlns="http://www.w3.org/2000/svg"
 width="900.000000pt" height="900.000000pt" viewBox="0 0 900.000000 900.000000"
 preserveAspectRatio="xMidYMid meet">
<metadata>
Created by potrace 1.10, written by Peter Selinger 2001-2011
</metadata>
<g transform="translate(0.000000,900.000000) scale(0.100000,-0.100000)"
fill="#000000" stroke="none">
<path d="M1203 8988 c2 -13 -34 -26 -78 -27 -71 -2 -298 -89 -431 -164 -157
-88 -352 -274 -458 -437 -67 -101 -142 -251 -160 -315 -3 -11 -14 -51 -26 -90
-49 -167 -50 -186 -50 -1625 0 -904 3 -1371 11 -1425 10 -80 31 -173 50 -230
6 -16 14 -44 18 -61 10 -37 83 -190 125 -259 87 -144 239 -309 376 -406 98
-70 100 -71 205 -123 127 -63 219 -94 354 -121 35 -7 67 -19 72 -26 5 -8 9
-90 9 -183 0 -166 0 -169 30 -231 50 -104 139 -171 258 -194 98 -19 146 -6
372 101 47 22 119 56 160 75 41 19 109 51 150 70 87 41 172 80 268 124 37 17
75 35 86 41 14 7 21 6 27 -4 5 -7 9 -357 9 -778 0 -866 3 -917 71 -1128 64
-201 194 -408 355 -564 86 -83 211 -181 264 -205 8 -4 35 -18 60 -33 135 -78
345 -141 515 -156 50 -4 549 -8 1110 -9 l1020 -1 60 -26 c33 -15 84 -38 112
-52 29 -14 55 -26 58 -26 3 0 48 -20 101 -45 52 -25 97 -45 99 -45 3 0 40 -16
82 -36 43 -20 103 -47 133 -61 30 -13 73 -33 95 -43 22 -10 67 -30 100 -45 33
-14 78 -35 100 -45 22 -10 67 -30 100 -45 33 -14 74 -32 90 -40 17 -7 55 -24
85 -38 124 -57 135 -59 237 -55 80 2 107 8 147 28 66 33 119 89 156 162 l30
61 0 179 c0 134 3 179 13 182 6 2 46 11 87 21 160 36 328 102 425 165 17 11
37 23 45 27 35 16 151 109 224 181 222 216 371 508 410 802 8 58 15 84 24 82
19 -3 17 164 -2 171 -8 3 -17 20 -21 38 -30 135 -190 259 -335 259 -111 0
-239 -76 -305 -180 -27 -43 -55 -165 -55 -242 0 -96 -61 -250 -137 -350 -95
-125 -233 -215 -393 -258 -59 -15 -107 -20 -226 -20 -167 0 -214 -10 -296 -64
-88 -57 -141 -151 -152 -269 -9 -89 -10 -89 -92 -52 -61 28 -147 67 -214 97
-25 11 -73 33 -107 49 -35 16 -65 29 -67 29 -3 0 -44 18 -93 41 -48 22 -108
50 -133 61 -25 11 -69 31 -99 45 -146 68 -46 63 -1265 63 -1068 0 -1103 1
-1176 20 -220 59 -400 214 -482 415 -51 125 -48 44 -48 1519 0 1334 1 1373 20
1434 79 252 258 427 502 492 71 19 122 20 1968 20 1832 0 1897 -1 1967 -20
239 -63 405 -221 504 -480 10 -27 15 -152 19 -520 8 -551 7 -544 88 -646 36
-45 64 -67 117 -94 64 -32 78 -35 155 -35 75 0 93 4 151 32 93 45 164 131 184
220 3 19 13 33 21 33 21 0 21 925 0 933 -9 4 -17 29 -21 74 -4 37 -15 100 -25
139 -66 259 -184 468 -368 652 -138 138 -315 257 -464 313 -276 103 -327 109
-1094 109 -540 0 -602 2 -608 16 -3 9 -6 399 -6 867 0 976 -1 983 -70 1212
-25 81 -87 222 -123 279 -165 261 -366 445 -612 560 -22 10 -49 23 -59 29 -39
19 -232 77 -261 78 -44 1 -80 14 -78 27 2 9 -484 12 -1997 12 -1513 0 -1999
-3 -1997 -12z m3892 -712 c280 -43 488 -227 575 -510 19 -62 20 -93 18 -952
l-3 -889 -1765 -6 c-971 -3 -1778 -9 -1795 -14 -31 -8 -114 -60 -150 -92 -25
-23 -54 -66 -79 -118 -26 -57 -27 -196 -1 -256 33 -75 90 -142 150 -176 83
-47 125 -53 422 -53 155 0 284 -3 287 -8 2 -4 -15 -48 -39 -97 -41 -83 -63
-147 -95 -264 -23 -84 -40 -256 -40 -398 0 -78 -3 -149 -6 -158 -6 -15 -34
-30 -219 -115 -81 -37 -171 -79 -307 -144 -84 -39 -126 -54 -129 -43 0 1 -3
33 -6 71 -9 124 -82 235 -194 292 -51 25 -66 28 -234 35 -234 11 -283 20 -402
81 -168 86 -293 238 -353 430 -19 62 -20 95 -20 1443 0 1356 1 1381 20 1444
69 219 227 386 442 467 110 41 127 41 2018 42 1484 1 1831 -1 1905 -12z"/>
<path d="M2142 7444 c-73 -19 -134 -57 -182 -112 -65 -73 -82 -122 -83 -227 0
-79 4 -97 29 -150 48 -100 121 -161 229 -191 66 -18 2032 -21 2117 -3 100 22
210 115 250 212 27 67 24 201 -6 269 -40 91 -108 155 -207 195 -41 16 -116 18
-1069 20 -867 2 -1033 0 -1078 -13z"/>
<path d="M4720 4371 c-92 -19 -188 -99 -233 -195 -23 -48 -27 -70 -27 -146 0
-82 3 -97 32 -157 37 -75 97 -130 187 -169 l53 -24 1047 0 c1185 0 1090 -7
1202 83 43 35 66 63 90 112 29 59 32 75 32 154 0 78 -3 95 -32 154 -36 74 -96
134 -170 170 l-46 22 -1050 1 c-577 1 -1066 -1 -1085 -5z"/>
<path d="M4655 2809 c-80 -40 -129 -90 -165 -166 -26 -55 -30 -74 -30 -153 0
-98 12 -135 65 -205 42 -55 71 -80 135 -112 l55 -28 1065 0 1065 0 55 28 c79
39 134 94 171 168 29 58 32 72 32 154 0 78 -4 98 -27 144 -40 77 -99 136 -172
171 l-64 30 -1063 0 -1062 -1 -60 -30z"/>
</g>
</svg>
