<?xml version="1.0" standalone="no"?>
<!DOCTYPE svg PUBLIC "-//W3C//DTD SVG 20010904//EN"
 "http://www.w3.org/TR/2001/REC-SVG-20010904/DTD/svg10.dtd">
<svg version="1.0" xmlns="http://www.w3.org/2000/svg"
 width="900.000000pt" height="900.000000pt" viewBox="0 0 900.000000 900.000000"
 preserveAspectRatio="xMidYMid meet">
<metadata>
Created by potrace 1.10, written by Peter Selinger 2001-2011
</metadata>
<g transform="translate(0.000000,900.000000) scale(0.100000,-0.100000)"
fill="#000000" stroke="none">
<path d="M5970 8986 c0 -8 -14 -18 -31 -21 -113 -25 -256 -141 -310 -250 -34
-68 -67 -196 -86 -330 -5 -39 -36 -85 -57 -85 -6 0 -54 -18 -107 -41 l-97 -41
-63 43 c-35 23 -80 54 -99 69 -136 105 -316 145 -461 105 -122 -35 -174 -71
-350 -245 -110 -110 -177 -184 -198 -222 -69 -123 -89 -272 -52 -398 17 -61
58 -146 86 -180 7 -8 38 -53 70 -99 l57 -84 -42 -101 c-59 -142 -61 -146 -84
-151 -12 -2 -64 -11 -116 -21 -186 -32 -278 -71 -364 -153 -74 -71 -118 -144
-150 -252 -13 -45 -16 -101 -16 -285 0 -236 6 -276 52 -379 40 -90 140 -195
226 -238 67 -33 283 -87 348 -87 20 0 64 -38 64 -56 0 -5 19 -52 41 -106 l41
-96 -63 -92 c-134 -193 -157 -246 -166 -381 -4 -65 -1 -101 11 -145 39 -135
76 -186 266 -374 165 -164 219 -201 339 -235 71 -19 184 -19 252 1 93 27 121
42 287 158 l84 58 96 -41 c54 -22 102 -41 108 -41 21 0 52 -46 57 -85 20 -138
53 -265 86 -328 49 -92 146 -185 236 -225 103 -46 142 -52 381 -52 253 0 282
5 401 63 72 36 168 128 207 201 34 61 59 146 80 266 10 52 19 104 21 116 5 23
9 25 151 84 l102 42 63 -43 c35 -23 80 -54 99 -69 180 -139 405 -157 598 -49
88 49 377 345 419 430 85 168 85 321 1 484 -17 33 -42 76 -57 95 -15 19 -47
64 -70 99 l-43 64 41 96 c23 53 41 101 41 107 0 21 46 52 85 57 127 18 245 48
315 80 115 52 239 200 264 315 4 18 14 32 22 32 12 0 14 43 14 270 0 257 -1
271 -20 290 -11 11 -20 28 -20 38 0 40 -70 150 -136 213 -86 82 -173 118 -369
154 -49 9 -99 18 -111 20 -23 5 -32 21 -99 186 l-27 66 43 64 c24 35 55 80 69
99 105 137 145 316 105 461 -34 122 -71 174 -245 349 -111 112 -184 178 -222
199 -124 69 -272 89 -398 52 -85 -25 -99 -33 -271 -149 -51 -34 -98 -61 -103
-59 -6 3 -62 26 -124 52 -85 37 -113 53 -117 69 -2 12 -11 64 -21 116 -32 186
-71 278 -153 364 -67 70 -160 128 -226 140 -21 4 -35 13 -35 21 0 13 -41 15
-275 15 -231 0 -275 -2 -275 -14z m450 -459 c13 -7 30 -23 36 -37 13 -26 32
-117 44 -205 4 -27 13 -79 19 -115 7 -36 15 -74 17 -85 8 -47 65 -114 118
-139 58 -27 125 -53 171 -65 40 -11 69 -24 211 -92 113 -55 126 -59 192 -59
78 0 104 12 233 103 35 26 91 66 124 89 78 57 110 71 137 65 33 -9 268 -249
268 -274 0 -26 -15 -54 -68 -128 -189 -264 -192 -270 -192 -361 0 -60 5 -77
58 -188 79 -163 92 -194 92 -211 0 -8 6 -29 14 -47 8 -18 25 -60 38 -92 13
-33 36 -72 52 -88 36 -36 97 -68 131 -68 14 0 54 -6 88 -14 34 -8 107 -22 162
-31 115 -19 145 -31 162 -65 17 -34 17 -316 0 -350 -17 -34 -47 -46 -162 -65
-55 -9 -128 -23 -162 -31 -34 -8 -71 -14 -81 -14 -31 0 -109 -38 -139 -69 -15
-15 -38 -54 -51 -87 -13 -32 -30 -74 -38 -92 -8 -18 -14 -39 -14 -47 0 -18
-16 -56 -92 -211 -54 -112 -58 -126 -58 -190 0 -81 10 -104 93 -220 31 -43 76
-106 99 -139 53 -73 68 -102 68 -128 0 -29 -248 -277 -278 -277 -24 0 -70 28
-212 128 -170 121 -198 135 -271 135 -60 0 -76 -5 -190 -60 -143 -69 -229
-103 -304 -122 -88 -22 -176 -99 -194 -168 -5 -21 -16 -74 -25 -118 -8 -44
-20 -109 -27 -145 -6 -36 -15 -84 -19 -108 -13 -82 -23 -85 -227 -84 l-178 1
-22 26 c-13 14 -23 36 -23 48 0 21 -17 114 -46 252 -8 39 -14 77 -14 86 0 31
-39 104 -72 135 -36 34 -86 62 -133 74 -79 21 -163 55 -304 122 -110 53 -130
60 -187 60 -75 0 -121 -23 -299 -152 -124 -89 -159 -110 -188 -110 -31 0 -277
250 -276 281 1 28 9 43 109 184 142 201 152 220 152 295 0 59 -6 77 -55 181
-68 142 -109 243 -127 315 -24 98 -107 186 -189 199 -20 4 -67 13 -106 20
-181 36 -232 45 -251 45 -12 0 -33 9 -48 21 l-26 20 0 183 c0 208 2 213 83
226 23 4 71 13 107 19 36 7 101 19 145 27 202 38 231 65 301 269 37 110 46
133 108 260 90 184 84 232 -49 418 -25 34 -64 89 -87 122 -57 78 -71 110 -64
138 3 13 61 78 130 145 136 133 148 139 207 99 56 -39 160 -111 229 -159 99
-69 121 -78 195 -78 61 0 77 5 188 59 154 74 194 91 212 91 8 0 29 6 47 14 18
8 60 25 92 38 67 26 115 70 138 125 9 21 24 83 33 138 9 55 23 131 31 169 8
38 14 79 14 91 0 29 35 73 63 78 55 11 313 6 337 -6z"/>
<path d="M6065 7321 c-173 -33 -285 -78 -425 -170 -212 -140 -377 -367 -444
-611 -59 -214 -59 -376 0 -590 99 -360 394 -655 754 -754 214 -59 376 -59 590
0 320 88 595 334 717 644 46 117 83 296 83 405 0 151 -58 376 -131 511 -101
187 -266 352 -453 453 -96 52 -193 84 -335 111 -125 24 -234 24 -356 1z m268
-452 c241 -35 431 -195 515 -434 42 -116 34 -299 -17 -425 -109 -267 -386
-430 -665 -391 -94 14 -114 20 -216 70 -103 50 -211 158 -261 261 -49 101 -56
122 -69 214 -28 190 38 383 180 526 90 91 204 153 321 174 95 18 124 18 212 5z"/>
<path d="M2767 6511 c-43 -21 -95 -65 -118 -101 -15 -25 -32 -99 -64 -275 -9
-49 -18 -100 -21 -112 -3 -17 -26 -30 -112 -63 -59 -23 -140 -57 -180 -76 -40
-19 -80 -34 -88 -34 -9 0 -42 18 -73 40 -240 173 -273 193 -376 229 -81 29
-262 29 -351 2 -62 -20 -140 -59 -184 -93 -49 -38 -356 -344 -395 -393 -47
-59 -87 -138 -109 -214 -24 -80 -22 -250 5 -326 34 -99 40 -111 178 -312 52
-76 94 -142 94 -148 0 -5 -19 -49 -42 -98 -22 -48 -41 -91 -41 -95 0 -9 -67
-173 -74 -179 -2 -2 -30 -8 -62 -13 -133 -20 -321 -59 -374 -78 -168 -59 -321
-227 -366 -399 -20 -78 -20 -649 0 -725 43 -162 167 -305 327 -381 54 -25 148
-50 259 -67 91 -14 184 -32 205 -40 11 -4 28 -29 38 -56 10 -27 25 -67 34 -89
18 -48 32 -80 73 -164 l31 -64 -66 -96 c-36 -53 -83 -121 -105 -151 -46 -65
-92 -156 -114 -225 -23 -73 -22 -245 3 -322 45 -141 70 -175 295 -399 224
-223 261 -251 398 -295 77 -24 241 -26 319 -3 69 20 159 65 229 114 30 22 98
69 150 105 l96 65 64 -31 c77 -37 111 -52 165 -72 78 -29 130 -51 139 -59 5
-4 13 -29 16 -55 26 -183 70 -365 107 -442 67 -141 220 -268 370 -307 77 -20
649 -20 726 0 174 45 345 204 400 371 25 77 47 169 47 196 0 13 6 56 15 94 8
39 17 86 20 106 6 38 18 46 145 94 60 23 93 37 169 74 77 37 51 47 271 -108
179 -126 271 -161 425 -161 113 0 173 14 270 62 79 40 113 69 292 247 210 209
249 260 292 386 17 48 21 84 21 185 0 192 -18 233 -234 534 -31 43 -56 84 -56
91 0 8 17 51 38 97 22 46 46 101 55 123 8 22 26 66 38 98 16 40 29 59 43 62
12 2 64 11 116 20 273 48 306 63 361 160 68 121 11 260 -131 315 -54 21 -57
21 -150 5 -52 -9 -126 -22 -165 -31 -38 -8 -80 -14 -93 -14 -13 0 -51 -7 -85
-14 -34 -8 -78 -18 -98 -21 -49 -7 -111 -50 -141 -96 -14 -22 -36 -72 -48
-112 -29 -96 -64 -189 -108 -287 -27 -62 -34 -75 -88 -180 -34 -67 -39 -83
-38 -145 0 -80 7 -94 118 -252 76 -107 144 -205 188 -269 33 -49 38 -115 12
-154 -33 -49 -310 -322 -346 -341 -68 -35 -97 -26 -248 82 -47 33 -103 72
-125 87 -22 14 -65 45 -95 67 -75 54 -97 66 -152 80 -65 18 -117 5 -245 -61
-137 -71 -269 -124 -428 -174 -70 -21 -127 -56 -155 -94 -22 -30 -49 -98 -49
-126 -1 -14 -7 -56 -15 -95 -31 -145 -46 -231 -46 -257 0 -40 -35 -143 -56
-166 -39 -41 -102 -52 -302 -52 -206 0 -247 7 -296 50 -35 31 -45 66 -81 285
-10 55 -23 129 -30 165 -8 36 -16 81 -20 101 -7 48 -57 125 -97 148 -17 11
-63 30 -102 42 -164 50 -293 104 -486 204 -72 37 -128 46 -188 31 -50 -14 -93
-40 -272 -167 -263 -186 -283 -194 -356 -141 -51 37 -289 275 -326 326 -44 61
-39 93 30 195 100 147 154 225 182 261 48 61 87 135 98 184 15 73 6 102 -94
296 -42 81 -74 162 -124 312 -50 150 -62 172 -112 208 -52 38 -96 49 -368 95
-218 37 -249 46 -280 81 -43 49 -50 90 -50 296 0 200 11 263 52 302 23 21 126
56 168 56 15 0 58 6 96 14 38 8 114 22 169 31 210 36 259 72 306 222 11 37 27
85 35 106 8 20 20 54 28 75 35 93 60 149 108 240 97 184 94 256 -17 402 -23
30 -54 73 -68 95 -14 22 -53 78 -86 125 -111 156 -120 188 -75 256 28 42 292
308 334 337 13 9 43 17 66 17 43 0 120 -47 369 -226 142 -101 158 -109 245
-108 72 0 80 3 185 58 121 64 279 130 395 165 95 29 135 49 172 85 52 51 57
70 113 381 8 44 22 122 31 172 16 92 16 94 -6 152 -48 128 -182 193 -293 142z"/>
<path d="M3230 4929 c-25 -5 -72 -14 -105 -19 -69 -11 -135 -27 -185 -45 -250
-90 -416 -192 -593 -364 -83 -81 -227 -257 -227 -279 0 -5 -6 -14 -13 -20 -14
-12 -71 -122 -107 -207 -43 -100 -83 -249 -102 -380 -23 -162 -13 -404 24
-540 6 -22 14 -56 19 -75 10 -47 61 -182 93 -247 14 -29 26 -55 26 -57 0 -3
14 -25 30 -49 17 -25 30 -48 30 -51 0 -18 157 -210 227 -277 72 -70 233 -199
248 -199 4 0 27 -13 52 -30 24 -16 46 -30 49 -30 2 0 28 -12 57 -26 65 -32
200 -83 247 -93 19 -5 53 -13 75 -19 78 -21 222 -37 335 -37 272 0 546 74 775
209 290 172 527 451 650 766 9 25 23 60 31 78 8 18 14 40 14 49 0 9 6 39 14
67 24 84 46 237 46 320 0 116 -41 193 -127 237 -103 52 -222 21 -287 -75 -30
-44 -35 -62 -40 -131 -25 -315 -116 -538 -297 -726 -88 -91 -274 -229 -308
-229 -5 0 -22 -6 -38 -14 -86 -44 -195 -73 -321 -87 -317 -35 -637 78 -866
307 -294 294 -391 728 -249 1119 8 22 21 53 29 68 8 16 14 33 14 38 0 5 14 32
32 61 114 188 264 330 444 421 151 76 270 106 479 123 66 5 88 11 125 36 160
106 135 328 -45 404 -39 16 -181 18 -255 3z"/>
</g>
</svg>
